<svg xmlns="http://www.w3.org/2000/svg" xmlns:xlink="http://www.w3.org/1999/xlink" width="193" zoomAndPan="magnify" viewBox="0 0 144.75 38.999999" height="52" preserveAspectRatio="xMidYMid meet" version="1.0"><defs><g/><clipPath id="9c87b6ef88"><path d="M 125 1 L 144 1 L 144 18 L 125 18 Z M 125 1 " clip-rule="nonzero"/></clipPath><clipPath id="b2086bff1d"><path d="M 129.210938 -3.460938 L 143.628906 1.679688 L 137.523438 18.796875 L 123.109375 13.65625 Z M 129.210938 -3.460938 " clip-rule="nonzero"/></clipPath><clipPath id="64c93b35cb"><path d="M 129.210938 -3.460938 L 143.628906 1.679688 L 137.523438 18.796875 L 123.109375 13.65625 Z M 129.210938 -3.460938 " clip-rule="nonzero"/></clipPath></defs><g fill="#ffffff" fill-opacity="1"><g transform="translate(31.110235, 34.629512)"><g><path d="M 21.390625 -4.34375 L 21.390625 0 L 1.25 0 L 1.25 -3.453125 L 13.890625 -18.6875 L 1.515625 -18.6875 L 1.515625 -23.03125 L 20.890625 -23.03125 L 20.890625 -19.578125 L 8.296875 -4.34375 Z M 21.390625 -4.34375 "/></g></g></g><g fill="#ffffff" fill-opacity="1"><g transform="translate(53.291286, 34.629512)"><g><path d="M 13.890625 0.390625 C 11.492188 0.390625 9.335938 -0.125 7.421875 -1.15625 C 5.503906 -2.1875 4 -3.601562 2.90625 -5.40625 C 1.820312 -7.21875 1.28125 -9.253906 1.28125 -11.515625 C 1.28125 -13.773438 1.820312 -15.8125 2.90625 -17.625 C 4 -19.4375 5.503906 -20.851562 7.421875 -21.875 C 9.335938 -22.90625 11.492188 -23.421875 13.890625 -23.421875 C 16.273438 -23.421875 18.421875 -22.90625 20.328125 -21.875 C 22.242188 -20.851562 23.75 -19.4375 24.84375 -17.625 C 25.9375 -15.8125 26.484375 -13.773438 26.484375 -11.515625 C 26.484375 -9.253906 25.9375 -7.21875 24.84375 -5.40625 C 23.75 -3.601562 22.242188 -2.1875 20.328125 -1.15625 C 18.421875 -0.125 16.273438 0.390625 13.890625 0.390625 Z M 13.890625 -4.140625 C 15.242188 -4.140625 16.46875 -4.453125 17.5625 -5.078125 C 18.664062 -5.703125 19.53125 -6.570312 20.15625 -7.6875 C 20.78125 -8.8125 21.09375 -10.085938 21.09375 -11.515625 C 21.09375 -12.941406 20.78125 -14.210938 20.15625 -15.328125 C 19.53125 -16.453125 18.664062 -17.328125 17.5625 -17.953125 C 16.46875 -18.578125 15.242188 -18.890625 13.890625 -18.890625 C 12.523438 -18.890625 11.296875 -18.578125 10.203125 -17.953125 C 9.109375 -17.328125 8.25 -16.453125 7.625 -15.328125 C 7 -14.210938 6.6875 -12.941406 6.6875 -11.515625 C 6.6875 -10.085938 7 -8.8125 7.625 -7.6875 C 8.25 -6.570312 9.109375 -5.703125 10.203125 -5.078125 C 11.296875 -4.453125 12.523438 -4.140625 13.890625 -4.140625 Z M 13.890625 -4.140625 "/></g></g></g><g fill="#ffffff" fill-opacity="1"><g transform="translate(81.165691, 34.629512)"><g><path d="M 23.859375 -23.03125 L 23.859375 0 L 19.484375 0 L 8 -13.984375 L 8 0 L 2.734375 0 L 2.734375 -23.03125 L 7.140625 -23.03125 L 18.59375 -9.046875 L 18.59375 -23.03125 Z M 23.859375 -23.03125 "/></g></g></g><g fill="#ffffff" fill-opacity="1"><g transform="translate(107.855355, 34.629512)"><g><path d="M 20.5625 -4.28125 L 20.5625 0 L 2.734375 0 L 2.734375 -23.03125 L 20.140625 -23.03125 L 20.140625 -18.75 L 8.03125 -18.75 L 8.03125 -13.75 L 18.71875 -13.75 L 18.71875 -9.609375 L 8.03125 -9.609375 L 8.03125 -4.28125 Z M 20.5625 -4.28125 "/></g></g></g><g clip-path="url(#9c87b6ef88)"><g clip-path="url(#b2086bff1d)"><g clip-path="url(#64c93b35cb)"><path fill="#2d6ba3" d="M 142.941406 1.734375 C 142.5625 1.289062 141.988281 1.105469 141.445312 1.257812 L 126.707031 5.476562 C 126.183594 5.632812 125.828125 6.089844 125.796875 6.644531 C 125.765625 7.21875 126.101562 7.753906 126.628906 7.972656 L 132.601562 10.519531 C 132.882812 11.621094 133.707031 14.902344 134.167969 16.804688 C 134.277344 17.273438 134.617188 17.648438 135.050781 17.804688 C 135.148438 17.839844 135.25 17.863281 135.355469 17.875 C 135.902344 17.933594 136.410156 17.648438 136.648438 17.148438 C 138.0625 14.171875 141.679688 6.460938 143.160156 3.28125 C 143.398438 2.785156 143.3125 2.175781 142.941406 1.734375 Z M 132.621094 10.527344 L 132.625 10.527344 Z M 132.621094 10.527344 " fill-opacity="1" fill-rule="nonzero"/></g></g></g><g fill="#2d6ba3" fill-opacity="1"><g transform="translate(-0.818601, 34.654046)"><g><path d="M 2.75 -23.203125 L 8.125 -23.203125 L 8.125 0 L 2.75 0 Z M 2.75 -23.203125 "/></g></g></g><g fill="#2d6ba3" fill-opacity="1"><g transform="translate(10.153677, 34.654046)"><g><path d="M 7.5625 -18.828125 L 0.125 -18.828125 L 0.125 -23.203125 L 20.359375 -23.203125 L 20.359375 -18.828125 L 12.9375 -18.828125 L 12.9375 0 L 7.5625 0 Z M 7.5625 -18.828125 "/></g></g></g></svg>